<svg xmlns="http://www.w3.org/2000/svg" fill="none" viewBox="0 0 800 500"><defs><linearGradient id="sky" x1="0" x2="0" y1="0" y2="1"><stop offset="0%" stop-color="#0f172a"/><stop offset="100%" stop-color="#1e293b"/></linearGradient><linearGradient id="building" x1="0" x2="0" y1="0" y2="1"><stop offset="0%" stop-color="#334155"/><stop offset="100%" stop-color="#1e293b"/></linearGradient><linearGradient id="glass" x1="0" x2="1" y1="0" y2="1"><stop offset="0%" stop-color="#3b82f6" stop-opacity=".3"/><stop offset="100%" stop-color="#6366f1" stop-opacity=".2"/></linearGradient><linearGradient id="roof" x1="0" x2="0" y1="0" y2="1"><stop offset="0%" stop-color="#1e40af"/><stop offset="100%" stop-color="#1e3a8a"/></linearGradient><filter id="glow"><feGaussianBlur result="blur" stdDeviation="3"/><feMerge><feMergeNode in="blur"/><feMergeNode in="SourceGraphic"/></feMerge></filter></defs><rect width="800" height="500" fill="url(#sky)"/><circle cx="50" cy="30" r="1" fill="#94a3b8" opacity=".6"/><circle cx="150" cy="60" r="1.5" fill="#94a3b8" opacity=".4"/><circle cx="300" cy="20" r="1" fill="#94a3b8" opacity=".7"/><circle cx="450" cy="45" r="1.2" fill="#94a3b8" opacity=".5"/><circle cx="600" cy="25" r="1" fill="#94a3b8" opacity=".6"/><circle cx="700" cy="55" r="1.5" fill="#94a3b8" opacity=".3"/><circle cx="100" cy="80" r=".8" fill="#cbd5e1" opacity=".4"/><circle cx="550" cy="70" r=".8" fill="#cbd5e1" opacity=".3"/><rect width="800" height="120" x="0" y="380" fill="#0f172a"/><rect width="800" height="2" x="0" y="380" fill="#334155" opacity=".5"/><ellipse cx="60" cy="340" fill="#166534" opacity=".7" rx="30" ry="40"/><rect width="6" height="20" x="57" y="360" fill="#713f12" opacity=".5"/><ellipse cx="120" cy="350" fill="#15803d" opacity=".6" rx="25" ry="35"/><rect width="5" height="15" x="118" y="365" fill="#713f12" opacity=".4"/><ellipse cx="700" cy="345" fill="#166534" opacity=".6" rx="28" ry="38"/><rect width="6" height="18" x="697" y="362" fill="#713f12" opacity=".4"/><ellipse cx="750" cy="355" fill="#15803d" opacity=".5" rx="22" ry="30"/><rect width="5" height="12" x="748" y="368" fill="#713f12" opacity=".3"/><rect width="300" height="180" x="250" y="200" fill="url(#building)" rx="4"/><polygon fill="url(#roof)" points="240 200 400 140 560 200"/><rect width="20" height="25" x="390" y="120" fill="#1e40af" rx="2"/><circle cx="400" cy="115" r="8" fill="#f59e0b" filter="url(#glow)"/><rect width="30" height="40" x="275" y="220" fill="url(#glass)" stroke="#3b82f6" stroke-width=".5" opacity=".8" rx="2"/><rect width="30" height="40" x="325" y="220" fill="url(#glass)" stroke="#3b82f6" stroke-width=".5" opacity=".8" rx="2"/><rect width="30" height="40" x="375" y="220" fill="url(#glass)" stroke="#3b82f6" stroke-width=".5" opacity=".8" rx="2"/><rect width="30" height="40" x="425" y="220" fill="url(#glass)" stroke="#3b82f6" stroke-width=".5" opacity=".8" rx="2"/><rect width="30" height="40" x="475" y="220" fill="url(#glass)" stroke="#3b82f6" stroke-width=".5" opacity=".8" rx="2"/><rect width="30" height="40" x="275" y="280" fill="url(#glass)" stroke="#6366f1" stroke-width=".5" opacity=".7" rx="2"/><rect width="30" height="40" x="325" y="280" fill="url(#glass)" stroke="#6366f1" stroke-width=".5" opacity=".7" rx="2"/><rect width="30" height="40" x="375" y="280" fill="url(#glass)" stroke="#6366f1" stroke-width=".5" opacity=".7" rx="2"/><rect width="30" height="40" x="425" y="280" fill="url(#glass)" stroke="#6366f1" stroke-width=".5" opacity=".7" rx="2"/><rect width="30" height="40" x="475" y="280" fill="url(#glass)" stroke="#6366f1" stroke-width=".5" opacity=".7" rx="2"/><rect width="60" height="50" x="370" y="330" fill="#0f172a" stroke="#3b82f6" stroke-width=".5" rx="3"/><rect width="30" height="8" x="385" y="325" fill="#1e40af" rx="2"/><rect width="70" height="5" x="365" y="380" fill="#334155" rx="1"/><rect width="80" height="5" x="360" y="385" fill="#475569" rx="1"/><rect width="90" height="5" x="355" y="390" fill="#64748b" opacity=".3" rx="1"/><rect width="130" height="140" x="120" y="240" fill="url(#building)" rx="3"/><rect width="25" height="30" x="130" y="255" fill="url(#glass)" stroke="#3b82f6" stroke-width=".5" opacity=".7" rx="2"/><rect width="25" height="30" x="170" y="255" fill="url(#glass)" stroke="#3b82f6" stroke-width=".5" opacity=".7" rx="2"/><rect width="25" height="30" x="210" y="255" fill="url(#glass)" stroke="#3b82f6" stroke-width=".5" opacity=".7" rx="2"/><rect width="25" height="30" x="130" y="310" fill="url(#glass)" stroke="#6366f1" stroke-width=".5" opacity=".6" rx="2"/><rect width="25" height="30" x="170" y="310" fill="url(#glass)" stroke="#6366f1" stroke-width=".5" opacity=".6" rx="2"/><rect width="25" height="30" x="210" y="310" fill="url(#glass)" stroke="#6366f1" stroke-width=".5" opacity=".6" rx="2"/><rect width="134" height="5" x="118" y="237" fill="#1e3a8a" rx="1"/><rect width="130" height="140" x="550" y="240" fill="url(#building)" rx="3"/><rect width="25" height="30" x="560" y="255" fill="url(#glass)" stroke="#3b82f6" stroke-width=".5" opacity=".7" rx="2"/><rect width="25" height="30" x="600" y="255" fill="url(#glass)" stroke="#3b82f6" stroke-width=".5" opacity=".7" rx="2"/><rect width="25" height="30" x="640" y="255" fill="url(#glass)" stroke="#3b82f6" stroke-width=".5" opacity=".7" rx="2"/><rect width="25" height="30" x="560" y="310" fill="url(#glass)" stroke="#6366f1" stroke-width=".5" opacity=".6" rx="2"/><rect width="25" height="30" x="600" y="310" fill="url(#glass)" stroke="#6366f1" stroke-width=".5" opacity=".6" rx="2"/><rect width="25" height="30" x="640" y="310" fill="url(#glass)" stroke="#6366f1" stroke-width=".5" opacity=".6" rx="2"/><rect width="134" height="5" x="548" y="237" fill="#1e3a8a" rx="1"/><rect width="40" height="105" x="380" y="395" fill="#334155" opacity=".3"/><rect width="50" height="105" x="375" y="395" fill="none" stroke="#475569" stroke-width=".5" opacity=".3"/><text x="400" y="205" fill="#94a3b8" font-family="Arial, sans-serif" font-size="10" font-weight="bold" letter-spacing="4" text-anchor="middle">VIGNAN INSTITUTE</text></svg>